<svg width="255" height="226" viewBox="0 0 255 226" fill="none" xmlns="http://www.w3.org/2000/svg">
<g clip-path="url(#clip0_1619_4744)">
<path d="M49.535 84.75H56.6114V72.9792H198.14V84.75H205.216V113H212.293V141.25H254.751V127.125H226.446V113H219.369V84.75H212.293V56.5H198.14V28.25L183.987 28.25V56.5H70.7643V28.25L56.6114 28.25V56.5H42.4586V84.75H35.3821V113H28.3057V127.125H0V141.25H42.4586V113H49.535V84.75Z" fill="black"/>
<path d="M141.529 113H113.223V141.25H141.529V113Z" fill="black"/>
<path d="M198.14 197.75V169.5H183.987V183.625H169.834V197.75H198.14Z" fill="black"/>
<path d="M212.293 197.75H198.14V214.229H212.293V226H226.446V211.875H212.293V197.75Z" fill="black"/>
<path d="M169.834 214.229V197.75H155.681V211.875H99.07V197.75H84.9172V214.229H99.07V226H155.681V214.229H169.834Z" fill="black"/>
<path d="M56.6114 197.75H84.9172L84.9171 183.625H70.7643V169.5H56.6114V197.75Z" fill="black"/>
<path d="M56.6114 214.229V197.75H42.4586V211.875H28.3057V226H42.4586V214.229H56.6114Z" fill="black"/>
<path d="M42.4586 169.5H56.6114L56.6114 141.25H42.4586V169.5Z" fill="black"/>
<path d="M113.223 157.729V141.25H99.07V155.375H84.9171V169.5H99.07V157.729H113.223Z" fill="black"/>
<path d="M99.07 98.875V84.75H84.9171V101.229H99.07V113H113.223V98.875H99.07Z" fill="black"/>
<path d="M141.529 98.875V113H155.681V101.229H169.834V84.75H155.681V98.875H141.529Z" fill="black"/>
<path d="M155.681 141.25H141.529V157.729H155.681V169.5H169.834V155.375H155.681V141.25Z" fill="black"/>
<path d="M169.834 14.125V0H84.9172V14.125H70.7643V28.25L99.07 28.25V16.4792H155.681V28.25L183.987 28.25V14.125H169.834Z" fill="black"/>
<path d="M28.3057 56.5H42.4586V42.375H28.3057V28.25H14.1528V44.7291H28.3057V56.5Z" fill="black"/>
<path d="M212.293 42.375V56.5H226.446V44.7291H240.599V28.25H226.446V42.375H212.293Z" fill="black"/>
<path d="M212.293 169.5V141.25H198.14V169.5H212.293Z" fill="black"/>
</g>
<defs>
<clipPath id="clip0_1619_4744">
<rect width="255" height="226" fill="white"/>
</clipPath>
</defs>
</svg>
